<svg width="36" height="41" viewBox="0 0 36 41" fill="none" xmlns="http://www.w3.org/2000/svg">
    <path d="M18.6537 21.4386C13.8366 22.7749 10.1917 25.155 8.04678 28.8631L1.97006 20.1816C-0.0791907 17.2522 0.633949 13.2162 3.56301 11.164C6.49208 9.11451 10.5277 9.82772 12.5797 12.7571L18.6564 21.4386H18.6537Z" stroke="#863332" stroke-width="0.45617" stroke-miterlimit="10"/>
    <path d="M23.1378 39.1377C20.2087 41.1872 16.1731 40.474 14.1211 37.5446L8.04437 28.8631C10.3122 25.0129 14.0118 22.7147 18.6513 21.4386L24.728 30.1201C26.7773 33.0495 26.0641 37.0856 23.1351 39.1377H23.1378Z" stroke="#863332" stroke-width="0.45617" stroke-miterlimit="10"/>
    <path d="M16.4983 35.8071C16.0967 36.0885 15.5448 35.9901 15.2661 35.5884L9.33142 27.0217C9.6511 26.6145 10.0582 26.1828 10.5282 25.7264L16.7169 34.5719C16.9984 34.9736 16.9 35.5256 16.4983 35.8043V35.8071Z" stroke="#863332" stroke-width="0.45617" stroke-miterlimit="10"/>
    <path d="M16.9593 21.9659H16.9564C16.9564 21.9659 16.9564 21.9688 16.9593 21.9746" stroke="#863332" stroke-width="0.45617" stroke-miterlimit="10"/>
    <path d="M22.4264 26.8243C24.3855 26.7669 26.2353 25.6274 27.1096 23.72L30.7464 15.7872H30.6753C30.0769 15.7872 29.4868 15.7408 28.9048 15.6451C28.6643 15.6096 28.4239 15.5632 28.1834 15.5112L28.1097 15.4948C27.902 15.4456 27.6971 15.391 27.4867 15.3309C26.9457 15.1751 26.4156 14.9784 25.8883 14.7379C25.6834 14.6505 25.4812 14.5548 25.2844 14.451C25.1861 14.4018 25.0877 14.3526 24.9866 14.2952C24.6123 14.0985 24.2434 13.8771 23.88 13.6367C23.7844 13.5738 23.686 13.5055 23.5904 13.4426C23.3827 13.3005 23.1723 13.153 22.9647 12.9945C22.7925 12.8606 22.6177 12.7267 22.4483 12.5846C22.3526 12.5108 22.257 12.4316 22.1668 12.3523C21.7898 12.0381 21.4182 11.702 21.0548 11.344L17.418 19.2768C17.3825 19.3588 17.347 19.4407 17.3142 19.52" stroke="#863332" stroke-width="0.45617" stroke-miterlimit="10"/>
    <path d="M31.7571 0.793888C34.4321 2.02083 35.607 5.1852 34.3802 7.86043L30.7434 15.7932C27.063 15.785 23.8907 14.1154 21.0518 11.35L24.6886 3.4172C25.9154 0.741968 29.0794 -0.433057 31.7544 0.793888H31.7571Z" stroke="#863332" stroke-width="0.45617" stroke-miterlimit="10"/>
    <path d="M32.1567 6.89881C32.5229 7.0655 32.6841 7.49999 32.5147 7.86616L28.8998 15.6159C28.4353 15.5885 27.9626 15.4902 27.4817 15.3071L31.1895 7.25679C31.3561 6.89062 31.7906 6.72939 32.1567 6.89881Z" stroke="#863332" stroke-width="0.45617" stroke-miterlimit="10"/>
</svg>
